<svg width="20" height="20" viewBox="0 0 20 20" fill="none" xmlns="http://www.w3.org/2000/svg">
<path d="M3.71073 20H15.3122C16.4961 20 17.4562 19.04 17.4562 17.855V8.3425C19.4689 8.2625 20.6728 6.03 19.5977 4.295L18.9701 3.2825C18.7326 2.89884 18.4009 2.58219 18.0067 2.36256C17.6124 2.14293 17.1686 2.0276 16.7173 2.0275H14.9234V1.2325C14.9234 1.07065 14.8915 0.910376 14.8295 0.760843C14.7676 0.611309 14.6768 0.475439 14.5623 0.360991C14.4479 0.246543 14.312 0.155758 14.1624 0.0938186C14.0129 0.0318797 13.8526 0 13.6907 0C13.2893 0.000164119 12.8919 0.0793789 12.5211 0.233122C12.1503 0.386864 11.8134 0.612124 11.5297 0.896039C11.246 1.17995 11.021 1.51696 10.8675 1.88783C10.7141 2.25869 10.6352 2.65615 10.6353 3.0575V7.3775C9.03764 7.535 7.83124 8.29 6.94488 9.355C5.96726 10.53 5.39094 12.0613 5.0484 13.5325C4.70335 15.01 4.58209 16.48 4.54459 17.5725C4.52958 18.04 4.52958 18.4425 4.53458 18.75H3.71073C3.23043 18.75 2.76059 18.6097 2.35899 18.3463C1.95739 18.0829 1.64154 17.7079 1.45027 17.2674C1.25901 16.8268 1.20067 16.34 1.28244 15.8668C1.36421 15.3936 1.58251 14.9546 1.91051 14.6037L3.06065 13.37C3.85333 12.5199 4.28511 11.3954 4.26506 10.2333C4.24501 9.0712 3.77468 7.96225 2.95314 7.14L1.82425 6.01125C1.76659 5.95156 1.69761 5.90394 1.62135 5.87119C1.54509 5.83843 1.46307 5.82119 1.38007 5.82047C1.29707 5.81975 1.21476 5.83556 1.13794 5.86699C1.06112 5.89841 0.991331 5.94482 0.93264 6.0035C0.87395 6.06219 0.827536 6.13197 0.796107 6.20878C0.764677 6.28559 0.748862 6.36789 0.749583 6.45088C0.750304 6.53386 0.767548 6.61588 0.800308 6.69213C0.833067 6.76838 0.880687 6.83735 0.940388 6.895L2.06928 8.02375C2.66237 8.61658 3.00196 9.41657 3.01642 10.255C3.03088 11.0934 2.71908 11.9046 2.14679 12.5175L0.996645 13.7513C0.503732 14.2805 0.175988 14.9421 0.0535969 15.6549C-0.0687946 16.3677 0.0194843 17.1007 0.307611 17.7641C0.595738 18.4275 1.07119 18.9924 1.67568 19.3895C2.28017 19.7867 2.98742 19.9988 3.71073 20ZM13.6745 1.25V2.6525C13.6745 2.81826 13.7403 2.97723 13.8575 3.09444C13.9748 3.21165 14.1338 3.2775 14.2995 3.2775H16.7173C17.2024 3.2775 17.6525 3.5275 17.9075 3.94L18.5363 4.95375C18.6679 5.1661 18.7404 5.40975 18.7463 5.6595C18.7522 5.90925 18.6912 6.15603 18.5698 6.37434C18.4483 6.59265 18.2707 6.77456 18.0554 6.90125C17.84 7.02795 17.5948 7.09484 17.3449 7.095H16.8324C16.6666 7.095 16.5076 7.16085 16.3904 7.27806C16.2731 7.39527 16.2073 7.55424 16.2073 7.72V17.855C16.2073 18.3488 15.8072 18.75 15.3122 18.75H14.4171V17.855C14.4174 16.8832 14.0317 15.951 13.3448 15.2635C12.6579 14.576 11.726 14.1894 10.7541 14.1887H9.48645C9.32067 14.1887 9.16168 14.2546 9.04445 14.3718C8.92723 14.489 8.86137 14.648 8.86137 14.8137C8.86137 14.9795 8.92723 15.1385 9.04445 15.2557C9.16168 15.3729 9.32067 15.4387 9.48645 15.4387H10.7529C12.0868 15.4387 13.1682 16.52 13.1682 17.855V18.75H5.78474C5.77849 18.4575 5.77849 18.07 5.79349 17.6138C5.82849 16.5688 5.94351 15.1888 6.2648 13.8163C6.58609 12.4363 7.1024 11.1175 7.905 10.1538C8.68885 9.215 9.75273 8.5975 11.2604 8.5975C11.4262 8.5975 11.5852 8.53165 11.7024 8.41444C11.8196 8.29723 11.8855 8.13826 11.8855 7.9725V3.0575C11.8855 2.065 12.6843 1.25875 13.6732 1.25H13.6745Z" fill="white"/>
</svg>
