<svg width="14" height="15" viewBox="0 0 14 15" fill="none" xmlns="http://www.w3.org/2000/svg">
<path d="M12.5 10.0705V8C12.5 7.73478 12.3946 7.48043 12.2071 7.29289C12.0196 7.10536 11.7652 7 11.5 7H7.5V5H8.5C8.76514 4.99974 9.01934 4.89429 9.20682 4.70681C9.3943 4.51934 9.49974 4.26514 9.5 4V1C9.49974 0.734865 9.3943 0.480665 9.20682 0.293186C9.01934 0.105707 8.76514 0.000264738 8.5 0H5.5C5.23487 0.000264738 4.98067 0.105707 4.79319 0.293186C4.60571 0.480665 4.50027 0.734865 4.5 1V4C4.50027 4.26514 4.60571 4.51934 4.79319 4.70681C4.98067 4.89429 5.23487 4.99974 5.5 5H6.5V7H2.5C2.23479 7 1.98043 7.10536 1.7929 7.29289C1.60536 7.48043 1.5 7.73478 1.5 8V10.071C1.02868 10.1927 0.61791 10.4821 0.344704 10.885C0.0714978 11.2879 -0.0453918 11.7766 0.0159455 12.2595C0.0772827 12.7424 0.312636 13.1864 0.677889 13.5082C1.04314 13.83 1.51322 14.0075 2 14.0075C2.48679 14.0075 2.95687 13.83 3.32212 13.5082C3.68737 13.1864 3.92273 12.7424 3.98406 12.2595C4.0454 11.7766 3.92851 11.2879 3.65531 10.885C3.3821 10.4821 2.97133 10.1927 2.5 10.071V8H6.5V10.071C6.02868 10.1927 5.61791 10.4821 5.3447 10.885C5.0715 11.2879 4.95461 11.7766 5.01595 12.2595C5.07728 12.7424 5.31264 13.1864 5.67789 13.5082C6.04314 13.83 6.51322 14.0075 7 14.0075C7.48679 14.0075 7.95687 13.83 8.32212 13.5082C8.68737 13.1864 8.92273 12.7424 8.98406 12.2595C9.0454 11.7766 8.92851 11.2879 8.65531 10.885C8.3821 10.4821 7.97133 10.1927 7.5 10.071V8H11.5V10.0705C11.0287 10.1922 10.6179 10.4816 10.3447 10.8845C10.0715 11.2874 9.95461 11.7761 10.0159 12.259C10.0773 12.7419 10.3126 13.1859 10.6779 13.5077C11.0431 13.8295 11.5132 14.007 12 14.007C12.4868 14.007 12.9569 13.8295 13.3221 13.5077C13.6874 13.1859 13.9227 12.7419 13.9841 12.259C14.0454 11.7761 13.9285 11.2874 13.6553 10.8845C13.3821 10.4816 12.9713 10.1922 12.5 10.0705ZM5.5 1H8.5L8.5005 4H5.5V1ZM3 12C3 12.1978 2.94136 12.3911 2.83147 12.5556C2.72159 12.72 2.56541 12.8482 2.38269 12.9239C2.19996 12.9996 1.9989 13.0194 1.80491 12.9808C1.61093 12.9422 1.43275 12.847 1.2929 12.7071C1.15305 12.5673 1.0578 12.3891 1.01922 12.1951C0.980634 12.0011 1.00044 11.8 1.07613 11.6173C1.15181 11.4346 1.27999 11.2784 1.44443 11.1685C1.60888 11.0586 1.80222 11 2 11C2.26514 11.0003 2.51934 11.1057 2.70682 11.2932C2.8943 11.4807 2.99974 11.7349 3 12ZM8 12C8 12.1978 7.94136 12.3911 7.83147 12.5556C7.72159 12.72 7.56541 12.8482 7.38269 12.9239C7.19996 12.9996 6.9989 13.0194 6.80491 12.9808C6.61093 12.9422 6.43275 12.847 6.2929 12.7071C6.15305 12.5673 6.0578 12.3891 6.01922 12.1951C5.98063 12.0011 6.00044 11.8 6.07613 11.6173C6.15181 11.4346 6.27999 11.2784 6.44443 11.1685C6.60888 11.0586 6.80222 11 7 11C7.2651 11.0004 7.51922 11.1059 7.70667 11.2933C7.89412 11.4808 7.99961 11.7349 8 12ZM12 13C11.8022 13 11.6089 12.9414 11.4444 12.8315C11.28 12.7216 11.1518 12.5654 11.0761 12.3827C11.0004 12.2 10.9806 11.9989 11.0192 11.8049C11.0578 11.6109 11.153 11.4327 11.2929 11.2929C11.4328 11.153 11.6109 11.0578 11.8049 11.0192C11.9989 10.9806 12.2 11.0004 12.3827 11.0761C12.5654 11.1518 12.7216 11.28 12.8315 11.4444C12.9414 11.6089 13 11.8022 13 12C12.9997 12.2651 12.8943 12.5193 12.7068 12.7068C12.5193 12.8943 12.2651 12.9997 12 13Z" fill="#8588A3"/>
</svg>
