<svg width="16" height="16" viewBox="0 0 16 16" fill="none" xmlns="http://www.w3.org/2000/svg">
<path d="M2.96822 16H12.2482C13.1952 16 13.9632 15.232 13.9632 14.284V6.674C15.5732 6.61 16.5362 4.824 15.6762 3.436L15.1742 2.626C14.9842 2.31907 14.7189 2.06575 14.4036 1.89005C14.0882 1.71435 13.7332 1.62208 13.3722 1.622H11.9372V0.986C11.9372 0.856517 11.9117 0.728301 11.8622 0.608674C11.8126 0.489047 11.74 0.380351 11.6484 0.288793C11.5569 0.197234 11.4482 0.124606 11.3285 0.0750549C11.2089 0.0255037 11.0807 0 10.9512 0C10.6301 0.000131295 10.3122 0.0635031 10.0156 0.186497C9.71904 0.309491 9.44958 0.489699 9.22263 0.716831C8.99569 0.943963 8.8157 1.21357 8.69295 1.51026C8.5702 1.80695 8.50709 2.12492 8.50722 2.446V5.902C7.22922 6.028 6.26422 6.632 5.55522 7.484C4.77322 8.424 4.31222 9.649 4.03822 10.826C3.76222 12.008 3.66522 13.184 3.63522 14.058C3.62322 14.432 3.62322 14.754 3.62722 15H2.96822C2.58403 15 2.2082 14.8878 1.88696 14.6771C1.56572 14.4663 1.31307 14.1663 1.16007 13.8139C1.00708 13.4615 0.960419 13.072 1.02582 12.6935C1.09123 12.3149 1.26585 11.9637 1.52822 11.683L2.44822 10.696C3.08228 10.0159 3.42767 9.11631 3.41163 8.18663C3.39558 7.25696 3.01937 6.3698 2.36222 5.712L1.45922 4.809C1.41309 4.76124 1.35792 4.72315 1.29692 4.69695C1.23592 4.67074 1.17031 4.65695 1.10392 4.65637C1.03753 4.6558 0.971689 4.66845 0.91024 4.69359C0.848792 4.71873 0.792966 4.75586 0.74602 4.8028C0.699073 4.84975 0.661947 4.90557 0.636806 4.96702C0.611666 5.02847 0.599015 5.09431 0.599592 5.1607C0.600169 5.22709 0.613962 5.2927 0.640167 5.3537C0.666371 5.4147 0.704462 5.46988 0.752217 5.516L1.65522 6.419C2.12963 6.89326 2.40127 7.53326 2.41284 8.20397C2.42441 8.87468 2.17499 9.52366 1.71722 10.014L0.797217 11.001C0.402935 11.4244 0.140773 11.9537 0.0428722 12.5239C-0.0550289 13.0942 0.0155855 13.6806 0.246058 14.2113C0.476531 14.742 0.856846 15.1939 1.34038 15.5116C1.82391 15.8293 2.38964 15.9991 2.96822 16ZM10.9382 1V2.122C10.9382 2.25461 10.9909 2.38179 11.0847 2.47555C11.1784 2.56932 11.3056 2.622 11.4382 2.622H13.3722C13.7602 2.622 14.1202 2.822 14.3242 3.152L14.8272 3.963C14.9325 4.13288 14.9905 4.3278 14.9952 4.5276C14.9999 4.7274 14.9511 4.92483 14.854 5.09947C14.7568 5.27412 14.6148 5.41965 14.4425 5.521C14.2703 5.62236 14.0741 5.67587 13.8742 5.676H13.4642C13.3316 5.676 13.2044 5.72868 13.1107 5.82245C13.0169 5.91621 12.9642 6.04339 12.9642 6.176V14.284C12.9642 14.679 12.6442 15 12.2482 15H11.5322V14.284C11.5325 13.5066 11.224 12.7608 10.6745 12.2108C10.1251 11.6608 9.37966 11.3515 8.60222 11.351H7.58822C7.45561 11.351 7.32843 11.4037 7.23466 11.4974C7.1409 11.5912 7.08822 11.7184 7.08822 11.851C7.08822 11.9836 7.1409 12.1108 7.23466 12.2046C7.32843 12.2983 7.45561 12.351 7.58822 12.351H8.60122C9.66822 12.351 10.5332 13.216 10.5332 14.284V15H4.62722C4.62222 14.766 4.62222 14.456 4.63422 14.091C4.66222 13.255 4.75422 12.151 5.01122 11.053C5.26822 9.949 5.68122 8.894 6.32322 8.123C6.95022 7.372 7.80122 6.878 9.00722 6.878C9.13983 6.878 9.267 6.82532 9.36077 6.73155C9.45454 6.63778 9.50722 6.51061 9.50722 6.378V2.446C9.50722 1.652 10.1462 1.007 10.9372 1H10.9382Z" fill="#8588A3"/>
</svg>
