<svg width="12" height="13" viewBox="0 0 12 13" fill="none" xmlns="http://www.w3.org/2000/svg">
<path d="M6 0C9.31385 0 12 2.39526 12 5.35023C12 7.61105 10.2185 10.0749 6.70154 12.7681C6.50598 12.9179 6.25665 13.0002 5.99885 13C5.74104 12.9998 5.49188 12.9171 5.29662 12.767L5.064 12.587C1.70277 9.96406 0 7.56057 0 5.35023C0 2.39526 2.68615 0 6 0ZM6 0.823113C4.65352 0.823113 3.36218 1.30008 2.41007 2.14908C1.45797 2.99808 0.923077 4.14957 0.923077 5.35023C0.923077 7.27193 2.49108 9.4861 5.67015 11.9664L5.89969 12.1437C5.9276 12.1651 5.96319 12.1768 6 12.1768C6.03681 12.1768 6.0724 12.1651 6.10031 12.1437C9.43323 9.59091 11.0769 7.31748 11.0769 5.35023C11.0769 4.75572 10.9456 4.16704 10.6905 3.61778C10.4353 3.06853 10.0614 2.56946 9.58993 2.14908C9.11849 1.72869 8.55882 1.39523 7.94285 1.16772C7.32689 0.940211 6.66671 0.823113 6 0.823113ZM6 3.29245C6.61204 3.29245 7.19901 3.50925 7.63179 3.89516C8.06456 4.28107 8.30769 4.80448 8.30769 5.35023C8.30769 5.89599 8.06456 6.4194 7.63179 6.80531C7.19901 7.19122 6.61204 7.40802 6 7.40802C5.38796 7.40802 4.80099 7.19122 4.36822 6.80531C3.93544 6.4194 3.69231 5.89599 3.69231 5.35023C3.69231 4.80448 3.93544 4.28107 4.36822 3.89516C4.80099 3.50925 5.38796 3.29245 6 3.29245ZM6 4.11557C5.63278 4.11557 5.2806 4.24565 5.02093 4.47719C4.76126 4.70874 4.61538 5.02278 4.61538 5.35023C4.61538 5.67769 4.76126 5.99173 5.02093 6.22328C5.2806 6.45482 5.63278 6.5849 6 6.5849C6.36722 6.5849 6.71941 6.45482 6.97907 6.22328C7.23874 5.99173 7.38462 5.67769 7.38462 5.35023C7.38462 5.02278 7.23874 4.70874 6.97907 4.47719C6.71941 4.24565 6.36722 4.11557 6 4.11557Z" fill="#8588A3"/>
</svg>
