<svg width="24" height="20" viewBox="0 0 24 20" fill="none" xmlns="http://www.w3.org/2000/svg">
<path fill-rule="evenodd" clip-rule="evenodd" d="M24 2.31165C23.1014 2.70992 22.1481 2.97116 21.172 3.08665C22.2001 2.47127 22.9696 1.50317 23.337 0.362648C22.3704 0.936564 21.3129 1.34105 20.21 1.55865C19.4686 0.766921 18.4866 0.242089 17.4164 0.0656229C16.3462 -0.110843 15.2476 0.0709271 14.2913 0.582718C13.335 1.09451 12.5743 1.90769 12.1275 2.89603C11.6806 3.88437 11.5725 4.99259 11.82 6.04865C9.862 5.9508 7.9465 5.44205 6.19798 4.55547C4.44946 3.66889 2.90706 2.42433 1.671 0.902648C1.23291 1.65418 1.0027 2.50875 1.004 3.37865C1.004 5.08665 1.873 6.59465 3.195 7.47765C2.41311 7.45234 1.64842 7.24155 0.964 6.86265V6.92265C0.963848 8.05979 1.35713 9.16197 2.0771 10.0422C2.79707 10.9224 3.7994 11.5263 4.914 11.7516C4.18866 11.9479 3.42821 11.977 2.69 11.8366C3.0046 12.8151 3.61711 13.6707 4.44188 14.2839C5.26665 14.8971 6.26244 15.2372 7.29 15.2566C5.54557 16.6248 3.39192 17.3668 1.175 17.3636C0.777 17.3636 0.385 17.3406 0 17.2956C2.25163 18.742 4.87187 19.5098 7.548 19.5076C16.605 19.5076 21.557 12.0046 21.557 5.49765C21.557 5.28465 21.552 5.07265 21.543 4.86165C22.507 4.16438 23.339 3.30088 24 2.31165Z" fill="#58667E"/>
</svg>
